<svg height="464pt" viewBox="-40 0 464 464.00097" width="464pt" xmlns="http://www.w3.org/2000/svg"><path d="m39.53125 176 64 288h40l-48-288zm0 0" fill="#ed1c24"/><path d="m95.53125 176 48 288h34.480469l-22.160157-288zm0 0" fill="#57a4ff"/><path d="m239.53125 464h40l64-288h-56zm0 0" fill="#ed1c24"/><path d="m155.851562 176 22.160157 288h27.039062l22.160157-288zm0 0" fill="#ed1c24"/><path d="m227.210938 176-22.160157 288h34.480469l48-288zm0 0" fill="#6aaeff"/><path d="m351.53125 96.800781v-.800781c0-17.671875-14.324219-32-32-32-2.949219-.011719-5.882812.394531-8.71875 1.199219-3.199219-14.710938-16.222656-25.203125-31.28125-25.199219-8.882812-.039062-17.367188 3.679688-23.359375 10.242188-8.980469-17.136719-25.242187-29.285157-44.222656-33.03125-18.980469-3.746094-38.636719 1.308593-53.457031 13.75-4.605469-19.792969-23.320313-32.988282-43.507813-30.679688-20.191406 2.3125-35.441406 19.398438-35.453125 39.71875-.011719.269531.015625.539062.082031.800781-2.664062-.507812-5.367187-.773437-8.082031-.800781-22.089844 0-40 17.910156-40 40 .011719 5.621094 1.183594 11.175781 3.441406 16.320312-20.855468 2.644532-36.109375 20.980469-34.9062498 41.96875 1.1992188 20.988282 18.4453128 37.464844 39.4648438 37.710938h304c20.550781.023438 37.773438-15.53125 39.839844-35.980469 2.0625-20.445312-11.699219-39.128906-31.839844-43.21875zm0 0" fill="#ffb655"/><g fill="#f7941d"><path d="m155.027344 101.097656c-12.5-3.351562-25.789063 1.15625-33.667969 11.425782-7.878906 10.265624-8.800781 24.269531-2.332031 35.476562 2.210937 3.828125 7.105468 5.140625 10.933594 2.933594 3.828124-2.210938 5.140624-7.105469 2.929687-10.933594-2.902344-4.953125-2.929687-11.082031-.070313-16.058594 2.859376-4.980468 8.167969-8.046875 13.910157-8.03125 5.742187.011719 11.035156 3.097656 13.875 8.089844 1.417969 2.496094 4.066406 4.039062 6.9375 4.046875 2.871093.007813 5.523437-1.527344 6.953125-4.015625 1.429687-2.488281 1.417968-5.554688-.035156-8.03125-4.222657-7.367188-11.222657-12.734375-19.433594-14.902344zm0 0"/><path d="m215.53125 80c0 4.417969 3.582031 8 8 8s8-3.582031 8-8c0-17.671875-14.324219-32-32-32-17.671875 0-32 14.328125-32 32 0 4.417969 3.582031 8 8 8s8-3.582031 8-8c0-8.835938 7.164062-16 16-16s16 7.164062 16 16zm0 0"/><path d="m114.734375 68c-2.175781-3.820312-.855469-8.683594 2.953125-10.882812 3.808594-2.195313 8.675781-.910157 10.902344 2.882812 1.417968 2.496094 4.066406 4.039062 6.9375 4.046875 2.867187.007813 5.523437-1.527344 6.953125-4.015625 1.429687-2.488281 1.414062-5.554688-.035157-8.03125-6.628906-11.488281-21.3125-15.425781-32.800781-8.800781-11.488281 6.628906-15.425781 21.3125-8.800781 32.800781 1.417969 2.496094 4.066406 4.039062 6.9375 4.046875s5.523438-1.527344 6.953125-4.015625 1.417969-5.554688-.035156-8.03125zm0 0"/><path d="m223.53125 112c-13.253906 0-24 10.746094-24 24 0 4.417969 3.582031 8 8 8s8-3.582031 8-8 3.582031-8 8-8 8 3.582031 8 8 3.582031 8 8 8 8-3.582031 8-8c0-13.253906-10.742188-24-24-24zm0 0"/><path d="m285.675781 83.199219c-11.488281-6.601563-26.15625-2.664063-32.800781 8.800781-1.449219 2.476562-1.464844 5.542969-.035156 8.03125 1.429687 2.488281 4.085937 4.023438 6.957031 4.015625s5.515625-1.550781 6.9375-4.046875c2.222656-3.792969 7.089844-5.078125 10.898437-2.882812 3.808594 2.199218 5.128907 7.0625 2.957032 10.882812-1.453125 2.476562-1.464844 5.542969-.035156 8.03125 1.429687 2.488281 4.082031 4.023438 6.953124 4.015625 2.871094-.007813 5.519532-1.550781 6.9375-4.046875 6.617188-11.480469 2.695313-26.152344-8.769531-32.800781zm0 0"/><path d="m311.246094 122.066406c-3.035156 3.136719-2.988282 8.128906.097656 11.214844s8.074219 3.128906 11.210938.097656c1.503906-1.503906 3.539062-2.347656 5.660156-2.347656 2.125 0 4.160156.84375 5.660156 2.347656 3.121094 3.121094 3.121094 8.179688 0 11.300782-3.125 3.125-3.125 8.191406-.003906 11.316406 3.125 3.125 8.191406 3.128906 11.316406.003906 9.242188-9.394531 9.179688-24.484375-.140625-33.800781-9.320313-9.316407-24.410156-9.378907-33.800781-.132813zm0 0"/><path d="m61.675781 107.199219c-5.519531 3.183593-9.546875 8.425781-11.199219 14.578125-1.648437 6.152344-.785156 12.707031 2.398438 18.222656 2.226562 3.792969 7.09375 5.082031 10.902344 2.882812 3.808594-2.199218 5.128906-7.058593 2.957031-10.882812-2.175781-3.820312-.855469-8.683594 2.953125-10.882812 3.808594-2.195313 8.675781-.910157 10.902344 2.882812 1.417968 2.496094 4.066406 4.039062 6.9375 4.046875 2.867187.007813 5.523437-1.527344 6.953125-4.015625 1.429687-2.488281 1.414062-5.554688-.035157-8.03125-6.621093-11.472656-21.289062-15.414062-32.769531-8.800781zm0 0"/></g><path d="m119.53125 464h-16l-64-288h16zm0 0" fill="#cf1820"/><path d="m71.53125 40c2.660156.027344 5.3125.292969 7.921875.800781-18.578125 3.863281-31.902344 20.226563-31.921875 39.199219.011719 5.621094 1.183594 11.175781 3.441406 16.320312-20.855468 2.644532-36.109375 20.980469-34.90625 41.96875 1.199219 20.988282 18.445313 37.464844 39.464844 37.710938h-16c-21.019531-.246094-38.265625-16.722656-39.4648438-37.710938-1.2031252-20.988281 14.0507818-39.324218 34.9062498-41.96875-2.257812-5.144531-3.429687-10.699218-3.441406-16.320312 0-22.089844 17.910156-40 40-40zm0 0" fill="#ffb655"/><path d="m119.53125 0c2.664062-.0195312 5.316406.25 7.921875.800781-18.578125 3.863281-31.902344 20.226563-31.921875 39.199219-.011719.269531.015625.539062.082031.800781-2.664062-.507812-5.367187-.773437-8.082031-.800781-2.660156-.019531-5.316406.25-7.917969.800781-.066406-.261719-.09375-.53125-.082031-.800781 0-22.089844 17.910156-40 40-40zm0 0" fill="#ffb655"/></svg>