<svg id="svg" xmlns="http://www.w3.org/2000/svg" xmlns:xlink="http://www.w3.org/1999/xlink" width="300" height="388.00000000000006" viewBox="0, 0, 400,388.00000000000006"><g id="svgg"><path id="path0" d="M144.969 66.516 C 143.449 67.319,141.294 69.507,142.011 69.521 C 142.186 69.524,142.143 69.655,141.915 69.812 C 140.862 70.536,140.075 73.710,139.894 77.961 L 139.708 82.330 131.310 82.340 C 122.150 82.350,117.990 82.996,116.505 84.641 C 116.398 84.759,115.815 85.112,115.209 85.424 C 113.599 86.255,111.249 89.240,109.805 92.287 L 108.544 94.951 108.544 154.951 L 108.544 214.951 109.767 217.534 C 110.441 218.955,111.275 220.441,111.622 220.835 C 111.969 221.230,112.641 222.000,113.117 222.546 C 114.630 224.286,117.447 226.023,120.024 226.807 C 122.969 227.702,276.132 228.033,279.417 227.152 C 281.696 226.540,283.883 225.537,283.883 225.103 C 283.883 224.895,283.985 224.827,284.110 224.951 C 284.352 225.194,284.941 224.746,286.796 222.913 C 289.355 220.382,290.729 218.053,291.603 214.757 C 291.955 213.431,292.040 198.788,291.956 153.981 L 291.845 94.951 290.445 92.039 C 289.171 89.386,286.615 86.019,285.875 86.019 C 285.710 86.019,285.266 85.710,284.887 85.331 C 284.070 84.514,282.265 83.540,281.283 83.388 C 280.898 83.328,280.320 83.109,280.000 82.901 C 279.632 82.663,259.908 82.486,226.561 82.422 L 173.705 82.319 173.484 78.538 C 173.268 74.814,171.969 69.515,171.273 69.515 C 171.082 69.515,170.812 69.155,170.673 68.716 C 170.533 68.277,169.709 67.404,168.841 66.775 L 167.262 65.631 156.932 65.642 C 147.018 65.653,146.536 65.688,144.969 66.516 M165.802 70.394 C 167.530 71.269,168.550 73.974,168.810 78.376 L 169.044 82.330 156.712 82.330 L 144.380 82.330 144.538 78.155 C 144.834 70.342,145.479 69.904,156.699 69.910 C 162.393 69.913,165.140 70.059,165.802 70.394 M279.650 87.676 C 281.737 88.520,285.437 91.788,285.437 92.788 C 285.437 93.017,285.574 93.204,285.741 93.204 C 287.576 93.204,287.566 92.899,287.671 154.449 L 287.769 212.004 286.944 214.209 C 285.581 217.852,282.313 221.287,279.166 222.383 C 277.165 223.080,274.207 223.107,199.806 223.107 L 122.524 223.107 120.324 222.009 C 118.334 221.016,114.951 217.922,114.951 217.095 C 114.951 216.913,114.763 216.701,114.533 216.624 C 112.624 215.988,112.639 216.520,112.731 154.563 L 112.816 96.893 113.919 94.646 C 115.838 90.737,118.500 88.388,122.524 87.050 C 123.286 86.796,150.305 86.686,200.583 86.729 L 277.476 86.796 279.650 87.676 M127.895 93.511 C 125.521 95.776,124.591 100.699,126.020 103.439 C 126.434 104.232,126.461 104.491,126.115 104.348 C 125.849 104.238,125.001 103.878,124.231 103.549 C 122.730 102.906,119.692 103.977,119.284 105.292 C 119.193 105.585,118.932 106.061,118.703 106.350 C 117.849 107.426,117.652 110.223,118.298 112.102 C 119.250 114.872,122.186 116.286,124.754 115.212 L 126.139 114.634 125.788 115.858 C 123.940 122.302,126.639 125.623,132.771 124.449 C 136.453 123.745,139.336 123.739,142.277 124.431 C 143.529 124.726,144.840 124.911,145.189 124.843 C 145.539 124.775,146.199 124.706,146.656 124.690 C 149.142 124.601,150.565 119.924,149.406 115.653 C 149.125 114.618,149.133 114.613,150.192 115.165 C 155.786 118.083,159.928 107.404,154.489 104.088 C 152.748 103.026,149.515 103.313,149.515 104.528 C 149.515 105.224,148.900 104.811,148.845 104.078 C 148.812 103.650,148.969 103.301,149.192 103.301 C 149.415 103.301,149.499 103.044,149.379 102.731 C 149.259 102.417,149.350 102.043,149.583 101.900 C 150.040 101.617,149.771 97.035,149.247 96.198 C 149.086 95.939,148.918 95.491,148.874 95.201 C 148.654 93.746,145.668 92.039,143.344 92.039 C 140.731 92.039,138.534 93.841,138.043 96.388 C 137.812 97.589,137.598 97.626,137.318 96.513 C 137.180 95.964,136.801 95.213,136.475 94.844 C 136.149 94.476,135.565 93.748,135.178 93.226 C 133.835 91.418,129.928 91.571,127.895 93.511 M134.487 97.101 C 135.142 98.358,135.183 99.644,134.653 102.260 C 134.006 105.451,129.223 105.883,128.572 102.809 C 127.127 95.989,131.641 91.634,134.487 97.101 M144.752 94.853 C 145.016 94.872,145.334 95.210,145.459 95.604 C 145.584 95.999,145.853 96.219,146.057 96.093 C 146.261 95.968,146.394 96.009,146.355 96.185 C 146.315 96.361,146.485 96.997,146.733 97.598 C 148.323 101.450,144.971 106.641,142.220 104.587 C 139.077 102.240,140.147 93.889,143.495 94.644 C 143.922 94.741,144.488 94.835,144.752 94.853 M247.023 96.991 C 244.546 98.259,244.271 99.379,244.280 108.149 C 244.295 121.066,243.362 120.408,261.485 120.285 L 274.877 120.194 275.878 119.114 C 277.609 117.246,277.670 116.876,277.670 108.256 C 277.670 95.699,278.561 96.343,261.165 96.325 C 249.712 96.313,248.208 96.384,247.023 96.991 M273.398 108.155 L 273.398 115.728 261.165 115.728 L 248.932 115.728 248.932 108.155 L 248.932 100.583 261.165 100.583 L 273.398 100.583 273.398 108.155 M139.235 105.788 C 139.598 106.343,140.137 106.796,140.433 106.796 C 140.729 106.796,140.971 106.927,140.972 107.087 C 140.972 107.248,139.557 107.321,137.826 107.251 L 134.680 107.123 135.461 106.280 C 135.891 105.816,136.561 104.694,136.951 103.786 L 137.659 102.136 138.117 103.458 C 138.369 104.186,138.872 105.234,139.235 105.788 M129.186 107.379 C 129.953 107.699,130.952 107.973,131.407 107.987 C 132.223 108.013,132.223 108.019,131.359 108.435 C 130.879 108.667,130.485 109.005,130.485 109.186 C 130.485 109.367,130.236 109.515,129.931 109.515 C 129.626 109.515,129.015 109.975,128.572 110.538 L 127.767 111.561 127.753 109.470 C 127.746 108.320,127.490 106.942,127.184 106.408 C 126.879 105.874,126.630 105.262,126.631 105.049 C 126.632 104.835,126.894 105.141,127.212 105.728 C 127.531 106.315,128.419 107.058,129.186 107.379 M147.916 106.492 C 147.663 106.966,147.457 108.348,147.459 109.563 L 147.462 111.774 145.930 110.353 C 145.088 109.571,144.021 108.720,143.559 108.460 C 142.736 107.999,142.740 107.988,143.763 107.975 C 144.338 107.967,144.918 107.784,145.052 107.566 C 145.187 107.349,145.428 107.253,145.590 107.353 C 145.751 107.453,146.307 107.117,146.825 106.606 C 148.019 105.430,148.512 105.379,147.916 106.492 M124.721 107.679 C 126.060 110.158,124.169 113.608,122.089 112.481 C 121.474 112.148,121.106 111.869,121.272 111.860 C 121.438 111.852,121.312 111.339,120.992 110.721 C 119.424 107.689,123.105 104.686,124.721 107.679 M153.010 106.525 C 154.583 107.823,154.786 110.064,153.490 111.800 C 152.520 113.099,152.145 113.167,151.073 112.237 C 148.869 110.326,150.781 104.685,153.010 106.525 M142.445 111.293 C 143.556 111.917,144.465 112.558,144.466 112.718 C 144.466 112.879,144.816 113.359,145.243 113.786 C 145.670 114.214,145.941 114.563,145.844 114.563 C 145.748 114.563,146.006 115.306,146.418 116.214 C 148.300 120.360,146.839 122.783,143.058 121.786 C 140.385 121.081,135.009 121.047,132.233 121.718 C 128.965 122.508,128.155 121.981,128.155 119.065 C 128.155 111.775,135.852 107.589,142.445 111.293 M195.249 113.217 C 195.192 113.266,194.359 113.409,193.398 113.534 C 191.159 113.826,189.523 114.138,188.544 114.462 C 188.117 114.603,187.636 114.750,187.476 114.787 C 187.316 114.824,187.141 114.889,187.087 114.932 C 187.034 114.974,186.553 115.088,186.019 115.184 C 184.639 115.434,174.919 120.302,173.620 121.395 C 173.023 121.897,172.427 122.201,172.296 122.070 C 172.165 121.938,171.947 122.118,171.812 122.469 C 171.678 122.820,171.403 123.107,171.203 123.107 C 171.002 123.107,170.366 123.553,169.788 124.099 C 166.148 127.539,164.651 129.127,164.449 129.763 C 164.323 130.160,164.082 130.485,163.914 130.485 C 163.745 130.485,162.845 131.578,161.913 132.913 C 160.981 134.248,159.913 135.672,159.540 136.078 C 159.167 136.484,158.950 136.959,159.057 137.132 C 159.164 137.305,158.889 137.810,158.447 138.252 C 158.004 138.695,157.746 139.226,157.873 139.432 C 158.000 139.637,157.919 139.806,157.693 139.806 C 157.467 139.806,157.282 140.070,157.282 140.394 C 157.282 140.717,157.115 141.285,156.912 141.656 C 152.303 150.066,151.552 169.163,155.533 176.699 C 156.067 177.710,156.117 177.889,156.117 178.807 C 156.117 179.112,156.335 179.593,156.602 179.875 C 156.869 180.157,157.145 180.722,157.216 181.129 C 157.286 181.536,157.629 182.305,157.978 182.838 C 158.327 183.370,158.653 184.081,158.702 184.417 C 158.751 184.752,159.020 185.207,159.299 185.426 C 159.578 185.646,160.627 187.049,161.631 188.544 C 162.636 190.039,164.040 191.874,164.752 192.621 C 165.464 193.369,166.360 194.476,166.744 195.082 C 167.127 195.688,167.536 196.089,167.652 195.973 C 167.768 195.857,168.407 196.376,169.072 197.128 C 172.022 200.459,187.214 208.126,188.856 207.111 C 189.089 206.968,189.124 207.068,188.943 207.360 C 188.721 207.721,188.859 207.781,189.466 207.588 C 189.920 207.444,190.291 207.489,190.291 207.688 C 190.291 207.887,190.684 208.019,191.165 207.981 C 191.646 207.944,192.214 208.009,192.427 208.126 C 193.060 208.474,195.251 208.611,200.194 208.611 C 205.137 208.611,207.328 208.474,207.961 208.126 C 208.175 208.009,208.743 207.944,209.223 207.981 C 209.704 208.019,210.097 207.900,210.097 207.718 C 210.097 207.536,210.490 207.402,210.971 207.420 C 213.818 207.529,228.007 200.850,229.107 198.883 C 229.301 198.536,229.567 198.304,229.698 198.367 C 229.925 198.476,231.419 197.241,233.167 195.499 C 234.544 194.126,237.006 191.077,238.747 188.587 C 239.660 187.282,240.670 185.900,240.992 185.516 C 241.313 185.132,241.481 184.662,241.363 184.472 C 241.245 184.281,241.458 183.945,241.836 183.725 C 242.215 183.505,242.366 183.319,242.173 183.313 C 241.980 183.306,242.082 182.995,242.400 182.621 C 242.718 182.248,243.210 181.330,243.493 180.583 C 243.775 179.835,244.318 178.513,244.699 177.644 C 245.080 176.776,245.450 175.640,245.521 175.120 C 245.592 174.600,245.767 173.989,245.910 173.762 C 249.200 168.527,246.749 144.548,242.386 139.291 C 242.126 138.977,241.842 138.353,241.755 137.904 C 241.550 136.838,234.842 127.913,233.115 126.408 C 232.379 125.767,231.255 124.762,230.616 124.175 C 229.978 123.587,229.294 123.107,229.096 123.107 C 228.899 123.107,228.738 122.952,228.738 122.763 C 228.738 122.025,216.518 115.502,214.656 115.246 C 214.178 115.180,213.612 115.020,213.398 114.891 C 211.674 113.847,196.168 112.417,195.249 113.217 M206.859 118.173 C 207.535 118.211,208.020 118.352,207.937 118.486 C 207.854 118.620,208.646 118.831,209.697 118.955 C 211.315 119.147,213.460 119.838,217.670 121.525 C 218.097 121.697,218.602 121.845,218.792 121.856 C 218.981 121.867,219.243 122.041,219.374 122.243 C 219.678 122.713,222.237 124.069,222.621 123.963 C 222.782 123.919,222.913 124.025,222.913 124.198 C 222.913 124.371,224.020 125.246,225.372 126.142 C 227.603 127.618,231.572 131.564,233.846 134.563 C 234.332 135.204,234.958 135.870,235.237 136.043 C 235.516 136.217,235.643 136.522,235.519 136.723 C 235.395 136.923,235.479 137.087,235.705 137.087 C 235.931 137.087,236.117 137.350,236.117 137.670 C 236.117 137.990,236.256 138.252,236.427 138.252 C 236.598 138.252,236.958 138.864,237.229 139.612 C 237.499 140.359,237.894 140.971,238.106 140.971 C 238.319 140.971,238.393 141.132,238.272 141.328 C 238.150 141.524,238.359 141.992,238.734 142.368 C 239.110 142.744,239.363 143.064,239.295 143.079 C 239.152 143.112,239.533 144.330,240.033 145.437 C 242.642 151.221,243.687 160.244,242.552 167.184 C 241.947 170.878,240.479 176.283,239.967 176.699 C 239.516 177.066,238.835 178.590,238.835 179.234 C 238.835 179.588,238.488 180.319,238.064 180.858 C 237.639 181.398,237.387 181.993,237.504 182.182 C 237.620 182.370,237.560 182.524,237.370 182.524 C 237.180 182.524,236.777 183.005,236.474 183.592 C 236.171 184.180,235.835 184.748,235.727 184.854 C 235.618 184.961,234.805 186.010,233.920 187.184 C 232.145 189.541,227.497 194.379,226.003 195.426 C 222.081 198.174,217.836 200.562,216.117 200.988 C 215.903 201.041,214.767 201.444,213.592 201.884 C 211.507 202.665,210.541 202.903,207.767 203.321 C 207.019 203.433,205.913 203.623,205.308 203.742 C 201.674 204.459,194.940 203.988,189.709 202.653 C 188.000 202.217,186.427 201.826,186.214 201.785 C 186.000 201.744,185.432 201.494,184.951 201.230 C 184.471 200.966,184.078 200.827,184.078 200.921 C 184.078 201.210,178.178 198.112,177.416 197.421 C 177.022 197.065,176.699 196.920,176.699 197.100 C 176.699 197.281,176.373 197.089,175.974 196.675 C 175.576 196.261,174.855 195.660,174.372 195.340 C 173.398 194.694,167.469 188.790,166.689 187.689 C 164.723 184.916,161.942 180.429,161.942 180.030 C 161.942 179.764,161.811 179.416,161.650 179.256 C 161.490 179.095,161.344 178.848,161.326 178.706 C 161.287 178.404,160.926 177.499,159.985 175.340 C 156.676 167.746,156.607 154.791,159.835 147.035 C 160.378 145.729,160.887 144.398,160.964 144.078 C 161.042 143.757,161.140 143.408,161.181 143.301 C 161.223 143.194,161.236 142.976,161.211 142.816 C 161.186 142.655,161.319 142.524,161.506 142.524 C 161.857 142.524,162.908 140.325,162.662 140.105 C 162.586 140.037,162.911 139.566,163.385 139.058 C 163.858 138.550,164.153 137.987,164.041 137.805 C 163.929 137.624,163.994 137.476,164.184 137.476 C 164.375 137.476,165.169 136.558,165.948 135.437 C 167.822 132.740,172.609 127.773,174.596 126.465 C 175.468 125.891,176.560 125.068,177.023 124.637 C 177.486 124.206,177.864 123.938,177.864 124.041 C 177.864 124.145,178.932 123.626,180.238 122.888 C 181.543 122.150,183.029 121.442,183.539 121.314 C 184.049 121.186,184.466 120.925,184.466 120.735 C 184.466 120.544,184.597 120.419,184.757 120.457 C 185.107 120.539,188.386 119.629,188.923 119.301 C 189.132 119.173,189.996 119.004,190.843 118.925 C 191.691 118.846,192.656 118.648,192.988 118.485 C 193.320 118.322,194.285 118.151,195.131 118.106 C 195.977 118.060,196.713 117.979,196.766 117.926 C 196.855 117.837,204.041 118.013,206.859 118.173 M194.018 136.542 C 181.240 139.634,173.151 153.303,176.161 166.719 C 176.805 169.590,178.443 173.564,179.191 174.072 C 179.422 174.229,179.475 174.360,179.308 174.363 C 178.936 174.370,181.819 178.221,182.802 179.029 C 183.192 179.350,184.250 180.116,185.153 180.732 C 186.057 181.349,186.796 181.985,186.796 182.147 C 186.796 182.376,189.283 183.609,190.291 183.879 C 190.398 183.907,191.183 184.235,192.036 184.606 C 196.629 186.607,204.395 186.504,209.417 184.376 C 210.432 183.946,211.262 183.430,211.262 183.230 C 211.262 183.030,211.423 182.966,211.619 183.087 C 211.816 183.209,212.284 183.001,212.659 182.625 C 213.035 182.249,213.368 182.029,213.400 182.136 C 213.455 182.324,214.956 181.192,217.705 178.892 C 218.433 178.282,219.029 177.619,219.029 177.419 C 219.029 177.218,219.480 176.581,220.032 176.002 C 225.095 170.693,226.284 157.996,222.473 149.927 C 220.820 146.426,216.664 141.359,215.446 141.359 C 215.256 141.359,215.188 141.217,215.296 141.042 C 215.404 140.868,214.977 140.421,214.348 140.049 C 213.719 139.678,213.201 139.515,213.198 139.687 C 213.195 139.859,213.064 139.804,212.907 139.565 C 212.550 139.022,208.944 137.186,207.713 136.921 C 207.209 136.813,206.097 136.548,205.243 136.332 C 203.022 135.773,196.710 135.890,194.018 136.542 M203.689 140.780 C 206.008 141.128,208.569 142.158,210.097 143.357 C 210.845 143.944,211.914 144.659,212.474 144.945 C 213.365 145.402,214.561 146.650,217.219 149.896 C 218.749 151.765,220.942 159.925,220.389 161.688 C 220.311 161.934,220.165 163.010,220.063 164.078 C 219.694 167.938,216.840 173.400,213.891 175.889 C 213.236 176.441,212.391 177.184,212.014 177.540 C 211.636 177.896,211.225 178.086,211.100 177.961 C 210.976 177.837,210.874 177.949,210.874 178.211 C 210.874 178.472,210.699 178.579,210.485 178.447 C 210.272 178.315,210.097 178.402,210.097 178.641 C 210.097 178.880,209.943 178.980,209.754 178.863 C 209.566 178.747,208.973 178.997,208.436 179.419 C 207.899 179.841,207.136 180.249,206.740 180.326 C 206.344 180.403,205.757 180.566,205.437 180.690 C 202.812 181.698,197.620 181.691,194.951 180.677 C 194.631 180.555,194.252 180.440,194.110 180.422 C 193.968 180.403,193.732 180.269,193.587 180.124 C 193.441 179.978,193.033 179.963,192.680 180.089 C 192.328 180.215,192.171 180.173,192.332 179.995 C 192.494 179.817,191.620 179.159,190.391 178.531 C 189.161 177.904,188.016 177.148,187.845 176.851 C 187.674 176.554,187.374 176.311,187.179 176.311 C 185.822 176.311,181.194 169.324,180.748 166.602 C 180.695 166.282,180.538 165.583,180.399 165.049 C 179.484 161.544,180.233 155.857,182.113 152.039 C 183.376 149.473,186.324 145.688,187.087 145.653 C 187.354 145.641,187.573 145.369,187.573 145.049 C 187.573 144.728,187.889 144.466,188.276 144.466 C 188.663 144.466,189.368 144.104,189.842 143.662 C 191.163 142.432,194.662 141.027,197.370 140.640 C 199.768 140.298,200.607 140.316,203.689 140.780 M148.228 254.375 C 147.627 254.556,146.857 254.934,146.517 255.216 C 146.178 255.498,145.796 255.683,145.668 255.627 C 144.916 255.298,141.996 259.448,142.486 260.151 C 142.543 260.234,142.373 260.436,142.107 260.600 C 141.444 261.010,141.143 268.417,141.686 270.949 C 143.008 277.117,148.834 280.260,155.507 278.407 C 157.094 277.966,161.375 274.052,160.976 273.406 C 160.864 273.225,160.988 273.004,161.253 272.916 C 162.124 272.625,161.877 260.940,160.971 259.558 C 160.571 258.947,160.286 258.392,160.339 258.325 C 160.654 257.926,156.751 254.870,155.409 254.466 C 153.607 253.923,149.892 253.876,148.228 254.375 M226.294 254.540 C 225.484 254.829,224.479 255.460,224.061 255.942 C 223.643 256.424,223.301 256.680,223.301 256.512 C 223.301 255.300,220.920 259.917,220.713 261.530 C 219.868 268.125,220.802 273.922,223.072 276.177 C 225.966 279.051,232.933 279.735,236.181 277.463 C 237.938 276.235,240.541 272.794,240.169 272.192 C 240.051 272.001,240.096 271.845,240.268 271.845 C 241.064 271.845,240.561 261.544,239.673 259.655 C 237.431 254.885,231.588 252.652,226.294 254.540 M268.089 254.733 C 263.800 256.680,262.373 259.486,262.349 266.019 C 262.328 271.426,262.830 273.771,264.279 275.030 C 264.794 275.478,265.132 275.981,265.029 276.148 C 264.400 277.165,269.913 278.932,273.181 278.760 C 276.439 278.589,280.767 276.654,280.144 275.647 C 280.040 275.478,280.256 275.340,280.624 275.340 C 280.993 275.340,281.186 275.232,281.054 275.099 C 280.922 274.967,281.063 274.610,281.367 274.305 C 282.795 272.877,283.318 261.042,281.989 260.223 C 281.695 260.041,281.563 259.717,281.696 259.501 C 282.118 258.817,277.960 254.967,276.243 254.453 C 273.863 253.740,269.983 253.873,268.089 254.733 M118.317 254.628 C 118.175 254.770,118.058 260.188,118.058 266.667 L 118.058 278.447 120.971 278.447 L 123.883 278.447 123.886 270.971 C 123.888 264.063,123.933 263.581,124.475 264.620 C 125.072 265.766,127.378 269.696,128.485 271.456 C 128.821 271.990,129.127 272.618,129.165 272.852 C 129.264 273.462,131.299 276.646,131.806 276.984 C 132.041 277.141,132.081 277.272,131.894 277.276 C 131.708 277.279,131.773 277.544,132.039 277.864 C 132.389 278.286,133.314 278.447,135.387 278.447 L 138.252 278.447 138.252 266.408 L 138.252 254.369 135.340 254.369 L 132.427 254.369 132.427 261.601 C 132.427 267.985,132.359 268.776,131.845 268.350 C 131.524 268.084,131.262 267.704,131.262 267.507 C 131.262 267.309,130.670 266.222,129.946 265.090 C 129.223 263.959,127.994 261.833,127.216 260.367 C 126.437 258.900,125.651 257.606,125.468 257.491 C 125.285 257.376,124.863 256.626,124.529 255.825 L 123.923 254.369 121.250 254.369 C 119.779 254.369,118.460 254.485,118.317 254.628 M174.757 266.376 L 174.757 278.447 177.476 278.447 L 180.194 278.447 180.194 274.175 L 180.194 269.903 183.640 269.903 C 190.937 269.903,194.003 266.993,193.298 260.737 C 193.190 259.780,192.831 258.699,192.501 258.334 C 192.170 257.969,191.919 257.495,191.943 257.282 C 191.967 257.068,191.241 256.369,190.330 255.728 L 188.673 254.563 181.715 254.435 L 174.757 254.306 174.757 266.376 M196.985 266.311 L 197.087 278.252 199.806 278.252 L 202.524 278.252 202.633 273.301 L 202.742 268.350 206.990 268.350 L 211.239 268.350 211.348 273.301 L 211.456 278.252 214.175 278.252 L 216.893 278.252 216.996 266.311 L 217.099 254.369 214.795 254.369 C 211.119 254.369,211.262 254.154,211.262 259.653 L 211.262 264.466 206.990 264.466 L 202.718 264.466 202.718 259.417 L 202.718 254.369 199.800 254.369 L 196.882 254.369 196.985 266.311 M242.330 256.304 L 242.330 258.252 245.437 258.252 L 248.544 258.252 248.544 268.350 L 248.544 278.447 251.456 278.447 L 254.369 278.447 254.369 268.350 L 254.369 258.252 257.691 258.252 L 261.013 258.252 260.895 256.408 L 260.777 254.563 251.553 254.459 L 242.330 254.355 242.330 256.304 M152.855 258.267 C 153.782 258.620,154.505 259.279,155.624 260.792 C 157.374 263.158,156.531 271.756,154.348 273.806 C 152.515 275.528,147.961 274.418,147.961 272.251 C 147.961 272.027,147.786 271.845,147.573 271.845 C 147.359 271.845,147.205 271.714,147.230 271.553 C 147.256 271.393,147.243 271.087,147.201 270.874 C 146.176 265.566,147.743 259.325,150.364 258.273 C 151.549 257.798,151.620 257.798,152.855 258.267 M231.943 258.328 C 234.733 259.164,236.596 267.795,234.749 271.335 C 234.436 271.936,234.178 272.574,234.177 272.753 C 234.173 273.350,232.444 274.534,231.224 274.777 C 230.001 275.020,226.929 273.783,227.454 273.258 C 227.590 273.122,227.501 273.010,227.254 273.010 C 225.680 273.010,225.007 264.838,226.287 261.265 C 227.238 258.613,229.307 257.538,231.943 258.328 M273.697 258.280 C 274.353 258.508,274.989 258.956,275.112 259.275 C 275.240 259.610,275.541 259.736,275.822 259.574 C 276.091 259.419,276.187 259.430,276.036 259.597 C 275.885 259.765,276.113 260.592,276.543 261.434 C 277.664 263.632,277.559 270.155,276.370 272.200 C 273.924 276.406,269.840 275.556,268.138 270.485 C 267.811 269.511,267.821 263.065,268.151 262.531 C 268.285 262.314,268.287 261.961,268.155 261.748 C 268.023 261.534,268.095 261.359,268.314 261.359 C 268.534 261.359,268.602 261.068,268.466 260.713 C 268.299 260.278,268.366 260.159,268.672 260.348 C 269.085 260.603,269.307 260.125,269.163 259.292 C 269.132 259.115,269.286 259.082,269.505 259.217 C 269.724 259.353,269.903 259.293,269.903 259.084 C 269.903 258.876,270.383 258.530,270.971 258.315 C 272.380 257.801,272.326 257.801,273.697 258.280 M186.681 259.390 C 190.380 262.136,187.747 266.019,182.188 266.019 L 180.194 266.019 180.194 262.092 L 180.194 258.165 182.816 258.315 C 184.810 258.430,185.734 258.687,186.681 259.390 M120.064 293.615 C 119.592 294.696,119.308 295.745,119.432 295.946 C 119.556 296.146,119.502 296.311,119.311 296.311 C 119.120 296.311,118.951 296.529,118.935 296.796 C 118.919 297.063,118.524 298.243,118.058 299.417 C 117.592 300.592,117.200 301.816,117.187 302.136 C 117.175 302.456,117.037 302.806,116.881 302.913 C 116.578 303.120,114.515 309.373,113.759 312.374 C 113.508 313.372,113.149 314.283,112.962 314.398 C 111.739 315.154,112.756 315.728,115.317 315.728 L 118.013 315.728 118.889 313.010 L 119.765 310.291 123.482 310.291 L 127.199 310.291 127.987 312.913 L 128.775 315.534 131.766 315.647 C 134.724 315.760,135.304 315.500,134.179 314.567 C 133.861 314.303,133.694 313.937,133.807 313.753 C 133.920 313.570,133.775 313.022,133.485 312.535 C 133.195 312.049,131.483 307.155,129.682 301.660 L 126.408 291.670 123.665 291.660 L 120.922 291.650 120.064 293.615 M134.945 292.524 C 135.939 296.142,141.559 312.842,141.816 312.946 C 141.995 313.017,142.051 313.221,141.941 313.399 C 141.832 313.576,141.917 314.180,142.130 314.741 C 142.630 316.056,148.650 316.165,148.430 314.854 C 148.367 314.481,148.484 314.175,148.690 314.175 C 148.896 314.175,149.182 313.641,149.325 312.989 C 149.468 312.336,151.055 307.363,152.851 301.936 C 154.647 296.510,156.117 291.976,156.117 291.860 C 156.117 291.745,154.836 291.650,153.271 291.650 L 150.425 291.650 148.778 297.613 C 147.873 300.892,146.883 304.056,146.578 304.644 C 146.273 305.231,146.113 305.856,146.222 306.033 C 146.331 306.210,146.243 306.464,146.026 306.598 C 145.809 306.732,145.626 307.312,145.619 307.887 C 145.600 309.587,145.075 308.280,143.309 302.136 C 142.418 299.039,141.547 296.155,141.373 295.728 C 141.199 295.301,140.855 294.209,140.610 293.301 L 140.163 291.650 137.434 291.650 C 134.792 291.650,134.713 291.678,134.945 292.524 M161.289 295.049 C 160.690 296.917,160.045 298.558,159.856 298.694 C 159.667 298.831,159.632 299.137,159.779 299.374 C 159.926 299.612,159.842 299.806,159.593 299.806 C 159.344 299.806,159.241 300.068,159.364 300.388 C 159.487 300.709,159.441 300.971,159.262 300.971 C 158.959 300.971,157.653 305.020,157.710 305.782 C 157.725 305.972,157.567 306.234,157.359 306.364 C 157.066 306.549,155.094 312.183,154.251 315.243 C 154.154 315.598,154.850 315.728,156.839 315.728 C 159.533 315.728,160.461 315.144,160.077 313.689 C 160.035 313.529,160.147 313.398,160.327 313.398 C 160.507 313.398,160.863 312.699,161.119 311.845 L 161.585 310.291 165.185 310.291 L 168.785 310.291 169.568 312.913 L 170.352 315.534 173.001 315.650 C 175.868 315.776,176.717 315.413,175.772 314.468 C 175.448 314.144,175.287 313.775,175.414 313.648 C 175.541 313.521,175.401 313.124,175.104 312.765 C 174.806 312.407,174.617 312.009,174.683 311.882 C 174.874 311.515,173.909 308.350,173.606 308.350 C 173.456 308.350,173.316 308.131,173.294 307.864 C 173.272 307.597,172.063 303.843,170.608 299.521 L 167.961 291.664 165.170 291.657 L 162.378 291.650 161.289 295.049 M178.641 303.689 L 178.641 315.728 181.359 315.728 L 184.078 315.728 184.078 303.689 L 184.078 291.650 181.359 291.650 L 178.641 291.650 178.641 303.689 M188.738 303.689 L 188.738 315.728 196.602 315.728 L 204.466 315.728 204.466 313.786 L 204.466 311.845 199.320 311.845 L 194.175 311.845 194.175 301.748 L 194.175 291.650 191.456 291.650 L 188.738 291.650 188.738 303.689 M212.989 293.301 C 212.575 294.209,212.235 295.126,212.234 295.340 C 212.234 295.553,212.108 295.822,211.954 295.938 C 211.801 296.053,211.633 296.708,211.580 297.394 C 211.528 298.080,211.348 298.641,211.180 298.641 C 211.011 298.641,210.874 299.043,210.874 299.534 C 210.874 300.025,210.664 300.637,210.408 300.893 C 210.151 301.150,210.108 301.362,210.311 301.365 C 210.514 301.368,210.484 301.500,210.245 301.656 C 209.917 301.872,206.526 311.613,205.515 315.243 C 205.416 315.597,206.104 315.728,208.066 315.728 L 210.752 315.728 211.678 313.010 L 212.603 310.291 216.399 310.291 C 219.820 310.291,220.194 310.361,220.194 311.003 C 220.194 311.395,220.325 311.846,220.485 312.006 C 220.646 312.167,220.784 312.414,220.793 312.557 C 220.802 312.699,221.034 313.471,221.309 314.272 L 221.808 315.728 224.473 315.728 C 226.798 315.728,228.277 315.276,227.225 314.888 C 227.031 314.816,225.542 310.738,223.915 305.825 C 222.288 300.913,220.790 296.596,220.585 296.233 C 220.380 295.870,220.114 295.016,219.994 294.335 C 219.562 291.880,219.252 291.650,216.372 291.650 L 213.742 291.650 212.989 293.301 M229.515 303.701 L 229.515 315.804 236.408 315.662 C 243.757 315.511,244.200 315.407,246.282 313.335 C 248.415 311.212,248.245 306.013,245.982 304.148 C 244.807 303.179,244.707 302.969,245.219 302.544 C 247.052 301.022,247.476 296.510,245.975 294.481 C 244.352 292.285,242.778 291.857,235.825 291.721 L 229.515 291.598 229.515 303.701 M251.262 303.697 L 251.262 315.744 259.320 315.639 L 267.379 315.534 267.379 313.786 L 267.379 312.039 262.026 311.931 L 256.674 311.823 256.784 301.736 L 256.893 291.650 254.078 291.650 L 251.262 291.650 251.262 303.697 M270.291 303.689 L 270.291 315.728 278.641 315.728 L 286.990 315.728 286.990 313.786 L 286.990 311.845 281.359 311.845 L 275.728 311.845 275.728 308.544 L 275.728 305.243 280.583 305.243 L 285.437 305.243 285.437 303.301 L 285.437 301.359 280.583 301.359 L 275.728 301.359 275.728 298.447 L 275.728 295.534 281.359 295.534 L 286.990 295.534 286.990 293.592 L 286.990 291.650 278.641 291.650 L 270.291 291.650 270.291 303.689 M240.874 296.733 C 242.819 299.106,241.280 301.346,237.494 301.650 L 234.951 301.854 234.951 298.638 L 234.951 295.422 237.573 295.662 C 239.592 295.848,240.350 296.094,240.874 296.733 M125.813 306.117 C 125.820 306.277,124.679 306.408,123.279 306.408 L 120.733 306.408 121.307 305.340 C 121.828 304.371,123.017 300.866,123.316 299.417 C 123.382 299.097,123.459 298.748,123.487 298.641 C 123.545 298.425,125.793 305.653,125.813 306.117 M217.905 303.473 C 218.884 306.545,218.958 306.408,216.320 306.408 C 214.076 306.408,214.011 306.379,214.325 305.534 C 214.504 305.053,214.602 304.354,214.544 303.979 C 214.485 303.604,214.572 303.381,214.737 303.482 C 214.901 303.584,215.357 302.493,215.749 301.057 L 216.463 298.447 216.816 299.806 C 217.011 300.553,217.501 302.204,217.905 303.473 M165.998 301.006 C 165.917 301.137,166.194 302.185,166.614 303.335 C 167.728 306.381,167.714 306.408,165.049 306.408 C 163.767 306.408,162.719 306.364,162.719 306.311 C 162.719 306.257,163.059 305.318,163.476 304.222 C 163.892 303.127,164.302 301.816,164.387 301.310 C 164.725 299.284,165.113 298.839,165.656 299.852 C 165.925 300.355,166.079 300.874,165.998 301.006 M241.519 305.794 C 244.086 308.117,242.048 311.491,237.918 311.756 L 234.951 311.947 234.951 308.358 L 234.951 304.769 237.830 304.915 C 239.961 305.022,240.919 305.251,241.519 305.794 " stroke="none" fill="#848484" fill-rule="evenodd"></path><path id="path1" d="M199.519 204.158 C 200.002 204.251,200.701 204.248,201.072 204.150 C 201.444 204.053,201.049 203.977,200.194 203.981 C 199.340 203.986,199.036 204.065,199.519 204.158 M220.330 266.019 C 220.330 267.835,220.397 268.578,220.479 267.670 C 220.560 266.762,220.560 265.277,220.479 264.369 C 220.397 263.461,220.330 264.204,220.330 266.019 M240.519 266.408 C 240.519 268.010,240.587 268.665,240.671 267.864 C 240.755 267.063,240.755 265.752,240.671 264.951 C 240.587 264.150,240.519 264.806,240.519 266.408 M161.678 266.408 C 161.678 267.796,161.748 268.364,161.834 267.670 C 161.920 266.976,161.920 265.840,161.834 265.146 C 161.748 264.451,161.678 265.019,161.678 266.408 M256.868 301.942 C 256.868 307.495,256.923 309.713,256.989 306.870 C 257.056 304.028,257.056 299.484,256.989 296.773 C 256.922 294.063,256.868 296.388,256.868 301.942 M204.378 313.786 C 204.378 314.748,204.453 315.141,204.546 314.660 C 204.638 314.180,204.638 313.393,204.546 312.913 C 204.453 312.432,204.378 312.825,204.378 313.786 " stroke="none" fill="#888484" fill-rule="evenodd"></path><path id="path2" d="M199.519 204.158 C 200.002 204.251,200.701 204.248,201.072 204.150 C 201.444 204.053,201.049 203.977,200.194 203.981 C 199.340 203.986,199.036 204.065,199.519 204.158 M220.330 266.019 C 220.330 267.835,220.397 268.578,220.479 267.670 C 220.560 266.762,220.560 265.277,220.479 264.369 C 220.397 263.461,220.330 264.204,220.330 266.019 M240.519 266.408 C 240.519 268.010,240.587 268.665,240.671 267.864 C 240.755 267.063,240.755 265.752,240.671 264.951 C 240.587 264.150,240.519 264.806,240.519 266.408 M161.678 266.408 C 161.678 267.796,161.748 268.364,161.834 267.670 C 161.920 266.976,161.920 265.840,161.834 265.146 C 161.748 264.451,161.678 265.019,161.678 266.408 M256.868 301.942 C 256.868 307.495,256.923 309.713,256.989 306.870 C 257.056 304.028,257.056 299.484,256.989 296.773 C 256.922 294.063,256.868 296.388,256.868 301.942 M204.378 313.786 C 204.378 314.748,204.453 315.141,204.546 314.660 C 204.638 314.180,204.638 313.393,204.546 312.913 C 204.453 312.432,204.378 312.825,204.378 313.786 " stroke="none" fill="#888484" fill-rule="evenodd"></path><path id="path3" d="M199.519 204.158 C 200.002 204.251,200.701 204.248,201.072 204.150 C 201.444 204.053,201.049 203.977,200.194 203.981 C 199.340 203.986,199.036 204.065,199.519 204.158 M220.330 266.019 C 220.330 267.835,220.397 268.578,220.479 267.670 C 220.560 266.762,220.560 265.277,220.479 264.369 C 220.397 263.461,220.330 264.204,220.330 266.019 M240.519 266.408 C 240.519 268.010,240.587 268.665,240.671 267.864 C 240.755 267.063,240.755 265.752,240.671 264.951 C 240.587 264.150,240.519 264.806,240.519 266.408 M161.678 266.408 C 161.678 267.796,161.748 268.364,161.834 267.670 C 161.920 266.976,161.920 265.840,161.834 265.146 C 161.748 264.451,161.678 265.019,161.678 266.408 M256.868 301.942 C 256.868 307.495,256.923 309.713,256.989 306.870 C 257.056 304.028,257.056 299.484,256.989 296.773 C 256.922 294.063,256.868 296.388,256.868 301.942 M204.378 313.786 C 204.378 314.748,204.453 315.141,204.546 314.660 C 204.638 314.180,204.638 313.393,204.546 312.913 C 204.453 312.432,204.378 312.825,204.378 313.786 " stroke="none" fill="#888484" fill-rule="evenodd"></path><path id="path4" d="M199.519 204.158 C 200.002 204.251,200.701 204.248,201.072 204.150 C 201.444 204.053,201.049 203.977,200.194 203.981 C 199.340 203.986,199.036 204.065,199.519 204.158 M220.330 266.019 C 220.330 267.835,220.397 268.578,220.479 267.670 C 220.560 266.762,220.560 265.277,220.479 264.369 C 220.397 263.461,220.330 264.204,220.330 266.019 M240.519 266.408 C 240.519 268.010,240.587 268.665,240.671 267.864 C 240.755 267.063,240.755 265.752,240.671 264.951 C 240.587 264.150,240.519 264.806,240.519 266.408 M161.678 266.408 C 161.678 267.796,161.748 268.364,161.834 267.670 C 161.920 266.976,161.920 265.840,161.834 265.146 C 161.748 264.451,161.678 265.019,161.678 266.408 M256.868 301.942 C 256.868 307.495,256.923 309.713,256.989 306.870 C 257.056 304.028,257.056 299.484,256.989 296.773 C 256.922 294.063,256.868 296.388,256.868 301.942 M204.378 313.786 C 204.378 314.748,204.453 315.141,204.546 314.660 C 204.638 314.180,204.638 313.393,204.546 312.913 C 204.453 312.432,204.378 312.825,204.378 313.786 " stroke="none" fill="#888484" fill-rule="evenodd"></path></g></svg>
